<mxfile host="65bd71144e">
    <diagram id="Wk8GFkDR0TZCIYfHPLK_" name="Page-1">
        <mxGraphModel dx="1079" dy="803" grid="1" gridSize="10" guides="1" tooltips="1" connect="1" arrows="1" fold="1" page="1" pageScale="1" pageWidth="850" pageHeight="1100" math="0" shadow="0">
            <root>
                <mxCell id="0"/>
                <mxCell id="1" parent="0"/>
                <mxCell id="3" value="Fin" style="html=1;dashed=0;whitespace=wrap;shape=mxgraph.dfd.start;fillColor=#ffe6cc;strokeColor=#d79b00;" vertex="1" parent="1">
                    <mxGeometry x="360" y="390" width="80" height="30" as="geometry"/>
                </mxCell>
                <mxCell id="4" value="Inicio" style="html=1;dashed=0;whitespace=wrap;shape=mxgraph.dfd.start;fillColor=#ffe6cc;strokeColor=#d79b00;" vertex="1" parent="1">
                    <mxGeometry x="350" width="100" height="30" as="geometry"/>
                </mxCell>
                <mxCell id="5" value="" style="html=1;dashed=0;whitespace=wrap;fillColor=#f8cecc;strokeColor=#b85450;" vertex="1" parent="1">
                    <mxGeometry x="355" y="50" width="90" height="40" as="geometry"/>
                </mxCell>
            </root>
        </mxGraphModel>
    </diagram>
</mxfile>